<svg xmlns="http://www.w3.org/2000/svg" viewBox="0 0 35 26.1" height="30" width="30" preserveAspectRatio="xMidYMax meet"><circle cx="26.07" cy="17.38" r="8.69" style="fill:#22b573"/><path d="M26.07,8.69a8.69,8.69,0,0,1-8.69,8.69,8.69,8.69,0,1,0,8.69-8.69Z" style="fill:#0e8911"/><circle cx="8.69" cy="17.38" r="8.69" style="fill:#22b573"/><path d="M8.69,8.69a8.69,8.69,0,1,0,8.69,8.69A8.69,8.69,0,0,1,8.69,8.69Z" style="fill:#0e8911"/><path d="M26.07,8.69a8.69,8.69,0,0,0-17.38,0,8.69,8.69,0,0,1,8.69,8.69A8.69,8.69,0,0,1,26.07,8.69Z" style="fill:#0e8911"/></svg>